<?xml version="1.0" encoding="UTF-8" standalone="no"?><svg xmlns="http://www.w3.org/2000/svg" id="svg1312" width="512" height="431.76904" version="1.1" viewBox="0 0 512 431.76904"><path id="path1166" d="M510.65736 141.41636c3.13895-15.24632.78474-31.27737-7.17474-44.730009-8.96842-15.134211-23.5421-25.335791-40.69421-28.811055-3.92369-.784737-8.07158-1.233158-11.99527-1.233158h-.22421c-29.37158 0-54.03474 21.075793-59.86422 49.886852-3.47526 16.92789-10.20158 33.29526-19.61842 48.42948a5.605264 5.605264 0 0 1-9.75316-.56053L300.34786 36.597923c-7.73527-16.255266-21.63632-29.0352681-38.90054-34.0800054-29.59579-8.7442119-60.08843 6.0536853-72.64422 32.5105314L125.79994 167.53689c-1.68158 3.47526-6.61422 3.36316-8.07158-.11211v-.1121a61.007693 61.007693 0 0 0-56.837383-38.34001c-8.071581 0-16.031056 1.56948-23.654215 4.70842-31.3894776 13.11632-45.4026376 50.11106-32.3984251 81.50054 11.8831591 28.36264 31.3894781 55.1558 56.7252711 78.24949 1.793685 1.68158 2.354211 4.26 1.345264 6.5021l-20.403161 42.82422c-14.349476 30.26843-2.802632 67.15106 27.017372 82.28528 8.744212 4.3721 18.04895 6.61421 27.690004 6.61421 23.542113 0 45.290533-13.67685 55.380013-34.97685l17.60053-36.88264c1.12105-2.46631 3.92368-3.69947 6.5021-2.91473 21.41211 5.82947 42.93632 8.96842 64.12422 8.96842 23.87843 0 47.42054-3.58737 70.17791-10.20158a5.605264 5.605264 0 0 1 6.61421 2.91474l17.37632 36.54632c10.31368 21.74842 31.8379 36.54632 55.82843 36.65842 9.75316 0 19.17-2.13 28.02632-6.61421 29.93211-15.13421 41.36685-52.12895 27.01737-82.50948l-21.86053-45.96317c-1.00895-2.2421-.56053-4.82053 1.23316-6.5021 42.37579-39.46106 73.65317-91.1416 85.42422-148.76371ZM132.52625 386.92692a39.135953 39.135953 0 0 1-35.313163 22.30895c-5.829474 0-11.771054-1.34526-17.264213-4.03579-19.282108-9.52895-26.568951-33.51948-17.264213-52.91369l16.927897-35.53737c1.457369-3.13895 5.493159-4.26 8.183686-2.24211 3.587369 2.57842 7.286843 5.04474 11.098424 7.51105 14.910002 9.52895 30.492632 17.60053 46.523692 24.21475 3.02684 1.23315 4.37211 4.59631 3.02684 7.51105Zm108.2937-43.60895c-89.79633 0-184.637395-60.87317-216.026874-138.56213a39.012637 39.012637 0 0 1 21.524214-50.78369c4.820527-1.90579 9.753159-2.91474 14.573687-2.91474 15.470528 0 30.044215 9.19264 36.210005 24.43895 19.618428 48.6537 85.424228 89.79633 143.718968 89.79633 8.96843 0 17.93685-.89684 26.79316-2.46631 2.46632-.44842 4.93264.78473 6.05369 3.02684l29.37158 61.88211c1.45737 3.13895-.22421 6.83843-3.47526 7.73527-19.17 5.04474-38.78843 7.84737-58.74317 7.84737Zm-12.78-105.15475 13.56474-28.47475c1.12105-2.2421 4.37211-2.2421 5.49316 0l13.22842 27.80211c.89684 1.79369-.33631 4.03579-2.2421 4.37211-5.71737.78474-11.43474 1.23316-17.04001 1.23316-3.47526 0-6.95052-.22421-10.42579-.56053-2.35421-.33631-3.47526-2.57842-2.57842-4.3721Zm180.4895 166.92476a39.06869 39.06869 0 0 1-52.57737-18.27316L249.56416 163.16478c-2.13-4.48421-8.52-4.48421-10.53789 0l-32.95895 69.39317c-1.23316 2.57842-4.1479 3.81158-6.83843 2.91474-22.42105-7.73527-43.72106-20.85158-59.5279-36.65843a5.4483166 5.4483166 0 0 1-1.00895-6.27789L209.991 42.539503c2.46632-5.268948 6.2779-9.97737 11.09842-13.228423 22.42106-14.685792 48.6537-5.493159 58.40685 15.022107L425.79366 352.06218c9.19264 19.50632 2.0179 43.49685-17.26421 53.0258Zm-30.82895-205.8253a5.5155798 5.5155798 0 0 1 .67263-5.82947c16.70369-21.41211 28.92316-46.41159 34.19211-72.98054 3.69948-18.49737 19.95474-31.389476 38.2279-31.389476 3.13895 0 6.2779.336316 9.52895 1.121053 20.73948 5.156844 32.73474 26.681053 28.36264 47.644743-10.31369 49.10211-35.87369 93.60791-70.73843 128.47265-2.80264 2.80263-7.39895 2.0179-9.08053-1.45737Z"/></svg>